/* XPM */
static char *_1cba72c36734cbdcc26bd17a015db5czPC8xIMx2yuEnz2H[] = {
/* columns rows colors chars-per-pixel */
"64 64 129 2 ",
"   c #010001",
".  c #0A0305",
"X  c #000806",
"o  c #050609",
"O  c #0B0509",
"+  c #000A0E",
"@  c #0C090C",
"#  c #11090D",
"$  c #010C12",
"%  c #0F0D12",
"&  c #110F14",
"*  c #00121C",
"=  c #0F111A",
"-  c #131016",
";  c #141219",
":  c #19151F",
">  c #0B1621",
",  c #121622",
"<  c #1B1722",
"1  c #1D1925",
"2  c #1E1B29",
"3  c #201A27",
"4  c #221D2D",
"5  c #2B1F2F",
"6  c #231F30",
"7  c #2C1F30",
"8  c #1E2236",
"9  c #2D202F",
"0  c #252132",
"q  c #2C2233",
"w  c #27263B",
"e  c #2B253A",
"r  c #2D283E",
"t  c #312335",
"y  c #352639",
"u  c #2F2940",
"i  c #332B43",
"p  c #3C2C44",
"a  c #3A2F4A",
"s  c #3D314D",
"d  c #3E3250",
"f  c #44324E",
"g  c #453451",
"h  c #4A3654",
"j  c #4E3857",
"k  c #473A5C",
"l  c #4C395A",
"z  c #523755",
"x  c #533856",
"c  c #553B5B",
"v  c #5D3E5C",
"b  c #623F5E",
"n  c #4D3D61",
"m  c #523F62",
"M  c #5F405F",
"N  c #60405F",
"B  c #4F4066",
"V  c #544165",
"C  c #594164",
"Z  c #55436A",
"A  c #5B456C",
"S  c #5E4770",
"D  c #5D4872",
"F  c #644263",
"G  c #6B4567",
"H  c #60456C",
"J  c #6D4769",
"K  c #6E486B",
"L  c #70476A",
"P  c #72496D",
"I  c #634A74",
"U  c #6F4C75",
"Y  c #654C78",
"T  c #6B4F7C",
"R  c #744C72",
"E  c #794E76",
"W  c #7C4F78",
"Q  c #68517F",
"!  c #72507D",
"~  c #7C507B",
"^  c #81537E",
"/  c #6E5281",
"(  c #7F5685",
")  c #795789",
"_  c #73588D",
"`  c #865684",
"'  c #885783",
"]  c #855887",
"[  c #8A5885",
"{  c #86598A",
"}  c #8D5B8B",
"|  c #905C8B",
" . c #8C5F92",
".. c #935F91",
"X. c #8E639D",
"o. c #956194",
"O. c #996193",
"+. c #96649A",
"@. c #9F6599",
"#. c #9A669F",
"$. c #9C659C",
"%. c #9C679F",
"&. c #A0659A",
"*. c #A0669C",
"=. c #A4679C",
"-. c #A4679D",
";. c #A5699F",
":. c #8A67A5",
">. c #9466A1",
",. c #9D67A0",
"<. c #9C69A4",
"1. c #A369A2",
"2. c #A769A0",
"3. c #AA6BA3",
"4. c #A66EAA",
"5. c #AA6EA9",
"6. c #AE6FA8",
"7. c #AE6FA9",
"8. c #AB6FAD",
"9. c #AF70AB",
"0. c #AF71AF",
"q. c #B070AB",
"w. c #B171AD",
"e. c #B572AE",
"r. c #B873AF",
"t. c #B272B0",
"y. c #B673B0",
"u. c #B873B0",
"i. c #B874B0",
/* pixels */
"w.8.0.w.y.i.i.i.i.i.i.i.i.i.i.i.i.i.i.w.e.w.w.i.i.i.u.i.u.e.i.i.i.i.i.i.i.i.u.i.t.e.w.w.i.u.y.u.i.u.u.u.i.u.u.u.i.u.u.y.e.8.e.w.",
"w.4.X.X.$.*.&.@.&.@.@.&.&.@.&.&.&.&.&.#.q.5.$.-.*.*.;.-.-.;.;.*.&.-.-.-.&.&.*.-.#.q.5.$.;.;.;.;.;.;.;.2.3.3.2.3.3.3.3.1.>.:.w.e.",
"r.3.I n g g f f f f f f f f f f g g g V &.o.k h h h h h j j h h h h h h g g h f m &.o.k h j j x x x x c c c c c c c x V Z / q.e.",
"u.;.V i q 4 4 2 4 4 4 4 4 4 4 4 4 4 2 i O.} 8 5 6 6 6 6 6 4 6 6 4 4 4 4 4 4 4 1 i O. .8 5 6 0 0 0 0 0 0 q q q q q q 0 r a D 7.e.",
"i.*.k e < ; & & % & % % & & % & & - o 0 | { * & & & & & & & & & & & % % & % & o 5 } ] * & & & & & - - ; - ; ; ; ; ; ; 1 e Z 8.e.",
"i.@.g 4 - @ o o o o o o o o o o o o   1 [ ] X @ @ o o o o o o o o o o o o o o   1 [ `   @ o o o o o o o o o o @ o @ @ ; 4 V 7.e.",
"i.@.f 4 & o                       o   1 ' `   O                             o   1 ' `   O X                         o & 2 m 7.e.",
"i.@.f 4 % o                       o   1 ' `   O X                           o   1 [ `   O X                         o & 1 m 7.e.",
"u.@.f 4 % o                       o   1 [ `   O X                           o   1 ' `   O X                         o & 1 m 7.e.",
"u.@.f 4 & o                       o   1 ' '   . X                           o   1 [ '   O                           o & 1 m 7.e.",
"i.@.f 4 & o                       o   1 ' `   O                             o   1 ' '   O                           o & 1 m 7.e.",
"i.@.f 4 & o                       o   < ' `   O X                           o   1 ' `   O                           o & 1 m 7.e.",
"i.@.f 2 % o                       o   < ' `   O                             o   < ' `   O                           o & 1 m 7.e.",
"i.&.f 4 % o                       o   < ' `   O X                           o   < ' `   O .                         o & 1 m 7.e.",
"i.&.f 4 & o                       o   1 ' '   O X                           o   1 ' `   O X                         o & 1 m 7.e.",
"i.&.f 4 & o                       o   3 [ '   . X                           o   3 ' [   . X                         o & 2 V 7.e.",
"i.&.g 4 & o                       o   4 [ [ X . X                           o   3 [ [ X . X                         o & 2 V 7.e.",
"i.&.g 4 - o o o o o o o o o o o o o   5 [ [ $ o o o o o o o o o o o o o o o o   5 [ [ $ o o o o o o o o o o o o o o @ - 2 Z 9.e.",
"i.*.f 2 X                             1 [ [                                     1 [ [                                 X , V 7.e.",
"e.$.A f y q q q q q q q 5 q q t t y t g o...e 9 q 5 q q q q q q q 5 q q t t y q f o...e 5 7 9 q q q q q q q q q q t y p g Y q.e.",
"e.5.} ^ E P K J J J K K K K K K P P P E E ~ J G K G K J K J J K K K K K J P P P E E ~ K G K K K J J K J K K K K K P R ~ ` ..3.e.",
"e.3.{ ` ~ W W W W W W W W W W W W W W ~ G R W W W W W W W W W W W W W W W W W W ~ G R W W W W W W W W W W W W W W W W ~ ` } 3.e.",
"w.<.! A m x x x x x x x z x x c c v c H O.+.l z z z z x x x x x z x x x c c v c A O.o.l z z z z x x x x x z z x x c v F I ) q.e.",
"i.*.g ,                               + ^ `                                     $ ` `                                   > n 7.e.",
"i.&.h 0 - @ o o o o o o o o o O o @   < ` `   # o o o o o o o o o o o o o o @   1 ' `   # o o o o o o o o o o o o o @ ; 4 V 8.e.",
"i.-.h 6 & o                       o   < ` `   O X                           o   < ' `   O X                         o & 4 V 9.e.",
"e.-.h 6 & o                       o   < ' `   O                             o   < ' `   O                           o - 2 V 7.e.",
"u.;.h 4 & o                       o   1 ' `   O                             o   1 ' `   O X                         o & 4 V q.e.",
"u.;.j 6 & o                       o   1 ' '   O                             o   1 ' `   O X                         o - 4 V 7.e.",
"i.-.h 4 & o                       o   1 ' '   O X                           o   1 ' `   O                           o & 4 V 7.e.",
"u.;.h 4 & o                       o   3 [ `   O X                           o   1 [ `   O X                         o & 4 V 7.e.",
"i.-.h 4 & o                       o   1 ' '   o X                           o   1 [ '   o X                         o & 2 Z w.e.",
"u.*.h 4 & o                       o   1 ' `   O                             o   1 ' `   O                           o - 2 V 9.e.",
"u.*.h 4 & o                       o   < ' `   O X                           o   < ` `   O X                         o & 2 V 7.e.",
"i.-.h 4 & o                       o   < ` `   O X                           o   < ' `   O X                         o & 2 V 7.e.",
"i.*.h 4 & o                       o   < ' `   O                             o   1 ` `   O                           o & 2 V 7.e.",
"i.&.g 4 % o                       o   1 ' [   . X                           o   1 ' [   . X                         o & 1 V 7.e.",
"i.&.g 4 % o                       o   3 [ [   . X                           o   3 [ [   . X                         o & 1 V 7.e.",
"i.*.g 4 % o                       o   4 [ [ + . o                           o   4 [ [ + . o                         o & 1 V 7.e.",
"i.-.h 4 & @ O O O O O O O O O O O @   5 } [ $ # @ O O O O O O O O O O O O O @   5 [ [ $ # @ O O O O O O O O O O O O @ - 1 A 9.e.",
"e.*.d >                               1 } [                                     2 } [                                   * B 7.e.",
"w.1.` R F F v v M N v v v v v F F F F R ..o.C v v v v v v b F v v v v v N F F F U o.o.C v v v v v N M N M v v v v F F K ~ { w.e.",
"e.3.' ~ R P L L L L L L L K L L L L L P x b L K L L L L L L L L K L K L L L L L P x b L L L L L L L L L L L L K L L L R ~ ' 5.e.",
"w.4.} ( ~ ~ W W ~ ~ ~ W W ~ ~ ~ ^ ^ ~ ` | o.~ W W W W W ~ ~ W W ~ ~ ~ ~ ~ ~ ^ ~ ` | o.~ W W W W W W W W ~ W W ~ ~ ~ ^ ` ]  .q.e.",
"y.,.l w , $ + + + + + X X X + $ $ = $ 0 [ ] + + X + X + + + + + X X + + $ $ = + 0 [ ] $ + X X X + + + $ + X X X + $ = 2 r Z 0.e.",
"i.;.h 5 & @ . . . . . . . . . . . .   : ` `   # O . . . . . . . . . . . . . .   : ` `   # O . . . . . . . . . . . . o & 2 V 7.e.",
"u.;.j 0 - o X X   X X X   X   X X o   < ` `   O o       X X X     X X   X X o   < ` `   O o     X X X X X     X X X @ - 4 V 7.e.",
"u.;.j 0 - o                       o   < ` `   O X                           o   < ` `   O                           o - 4 Z 7.e.",
"i.;.l 0 & o                       o   1 ' `   O                             o   1 ' `   O                           o - 4 Z w.e.",
"u.;.x 0 & o                       o   1 ' `   O                             o   1 ' `   O                           o ; 4 Z 9.e.",
"e.2.c 0 - o                       o   1 ' `   O X                           o   1 [ '   . X                         o - 4 A q.e.",
"u.;.x 0 ; o                       o   1 ' `   O X                           o   3 ' `   O                           o - 0 A q.e.",
"u.3.c q ; o                       o   1 ' [   . X                           o   3 [ '   o X                         o ; 6 A q.e.",
"u.2.c q ; o                       o   1 ' `   O X                           o   3 [ `   O                           o ; 0 A w.e.",
"u.3.c q ; o                       o   < ' `   O                             o   1 ' `   O                           o ; 0 A 0.e.",
"u.3.c q ; o                       o   < ' `   O                             o   < ' `   O                           o ; 0 A q.e.",
"y.2.c q ; o                       o   < ' `   O X                           o   < ` `   O X                         o ; 0 A w.e.",
"u.3.c q ; @                       o   1 ' `   O X                           o   1 ` `   . X                       o @ ; 0 A w.e.",
"u.3.c e : @ o o o o o o o o o o o o   4 [ [ + @ o o o o o o o o o o o X o o o   5 [ [ + O o o o o o o o o @ o o @ @ % : q S w.e.",
"y.3.C u 3 ; & & & % & % & & & & & - X e | } , & & & & & & & & & & & & % & & & X q | } > & & & & - - - - - ; ; ; ; ; : 4 i I w.e.",
"e.3.H d e 4 4 2 4 4 4 4 4 4 4 4 4 4 2 s O.o.r 5 6 6 4 4 4 6 4 4 4 4 4 4 4 4 4 1 a O...r 4 0 6 0 0 0 0 0 q q q e q 0 e i g Q w.e.",
"u.3.T V g g f g f f f f f f f f g h g A *.@.n h h j j j j j j h h h h h g h h f A *.$.n h j j j x x x x c c c c c c m V Z _ w.e.",
"w.5.>.X.+.*.&.*.&.&.&.&.&.&.*.*.-.&.*.>.q.7.#.;.-.;.;.;.;.;.;.;.2.-.-.-.*.-.;.*.>.w.7.#.;.;.;.;.;.3.3.3.3.3.3.3.3.3.3.1.>.:.w.e.",
"w.w.e.y.e.e.u.i.y.e.i.u.u.y.u.i.i.i.u.e.e.w.e.i.y.e.e.u.y.y.y.e.u.y.u.i.i.u.e.r.y.e.e.e.u.u.y.u.e.e.e.u.y.y.e.e.e.u.y.e.e.w.e.e."
};
