/* XPM */
static char *_e2f587ccda74ce2bf9b7a01e098aba0ss63xiblD9rmXsJ0[] = {
/* columns rows colors chars-per-pixel */
"64 64 142 2 ",
"   c #010000",
".  c #0B0502",
"X  c #000C00",
"o  c #0C0904",
"O  c #000E09",
"+  c #0E0D08",
"@  c #120505",
"#  c #110904",
"$  c #130D08",
"%  c #001203",
"&  c #001905",
"*  c #031409",
"=  c #0B1609",
"-  c #001908",
";  c #0E1A0A",
":  c #12120A",
">  c #14190C",
",  c #1A1B0E",
"<  c #1E1F10",
"1  c #201F10",
"2  c #13230E",
"3  c #15280D",
"4  c #1F2110",
"5  c #1F2911",
"6  c #21220F",
"7  c #222211",
"8  c #2D2713",
"9  c #242E12",
"0  c #2E2914",
"q  c #302714",
"w  c #332A15",
"e  c #392D16",
"r  c #3D2F18",
"t  c #2C3215",
"y  c #2E3A17",
"u  c #353317",
"i  c #383317",
"p  c #323817",
"a  c #353518",
"s  c #3D3519",
"d  c #3D3919",
"f  c #402F19",
"g  c #44351A",
"h  c #49371C",
"j  c #433A1A",
"k  c #4A3C1C",
"l  c #513C1E",
"z  c #47401C",
"x  c #4D431E",
"c  c #4C481E",
"v  c #51441F",
"b  c #4D4B21",
"n  c #534521",
"m  c #554D21",
"M  c #5C4E23",
"N  c #575023",
"B  c #5C5324",
"V  c #6F4D26",
"C  c #714E27",
"Z  c #744F28",
"A  c #625526",
"S  c #6B5A27",
"D  c #665E28",
"F  c #6C5C29",
"G  c #735227",
"H  c #755128",
"J  c #7B542B",
"K  c #745A2A",
"L  c #795E2B",
"P  c #74642B",
"I  c #7C632D",
"U  c #81572C",
"Y  c #845A2E",
"T  c #8A5E2E",
"R  c #855C31",
"E  c #895E31",
"W  c #83612C",
"Q  c #8B642F",
"!  c #8D6431",
"~  c #8D6A31",
"^  c #946335",
"/  c #9A6537",
"(  c #936A32",
")  c #9B6D34",
"_  c #9D6638",
"`  c #9D6938",
"'  c #947233",
"]  c #9B7335",
"[  c #9E7936",
"{  c #A26F35",
"}  c #A36B3A",
"|  c #A07536",
" . c #A17936",
".. c #A6753A",
"X. c #AE723D",
"o. c #A9793A",
"O. c #B2763E",
"+. c #B47A3F",
"@. c #B87C3D",
"#. c #B47640",
"$. c #B67940",
"%. c #BD7D43",
"&. c #C07F43",
"*. c #A6813A",
"=. c #AF823C",
"-. c #B7873E",
";. c #BC8A3F",
":. c #BE8241",
">. c #C38144",
",. c #C98545",
"<. c #CA8B44",
"1. c #CC8748",
"2. c #CE8849",
"3. c #D18B47",
"4. c #D48C4A",
"5. c #DA8F4A",
"6. c #CF9148",
"7. c #DE924D",
"8. c #E0924F",
"9. c #E2934F",
"0. c #E4944D",
"q. c #E9974F",
"w. c #ED994B",
"e. c #EB994E",
"r. c #EB994F",
"t. c #EF9C4F",
"y. c #F19F4D",
"u. c #E39450",
"i. c #E59550",
"p. c #E99751",
"a. c #E99850",
"s. c #EC9A52",
"d. c #F19D53",
"f. c #F2A14D",
"g. c #F7A156",
"h. c #F9A355",
"j. c #F9A457",
"k. c #FEA655",
"l. c #FAA358",
"z. c #FBA558",
"x. c #FDA658",
"c. c #FFA859",
/* pixels */
"x.k.k.c.c.c.c.c.c.c.x.c.c.c.c.c.c.c.c.c.x.x.c.c.c.c.c.c.c.c.c.x.c.c.c.c.c.x.c.c.c.x.x.x.c.c.x.x.c.c.c.c.x.x.x.x.c.c.c.c.x.k.x.l.",
"x.h.w.0.0.8.7.7.8.7.7.7.7.8.8.8.i.8.8.r.g.h.q.i.i.i.i.i.i.i.i.u.i.i.u.i.u.i.u.u.r.h.g.q.i.i.p.p.p.p.a.a.a.a.s.s.a.a.s.s.t.f.k.x.",
"c.s.o.~ L H C C C V C V C C C C Z Z C ~ 8.7.W H H H H H H H H H H H H H H H H C ~ 7.7.W H J J J U J J U Y Y Y Y Y Y Y Q ] ;.j.x.",
"c.a.( D b j s s s s s s s s s s s j i A 3.3.c j j j j j j j j j d j s s s s s u B 3.3.c s j j j j j j k k k k k k k x N F *.g.x.",
"c.u.Y c 0 1 , , , , , , , > , , , , = j ,.,.9 , , , , , , , , , , > > , > , , * j ,.,.5 , , , , , < 4 < 7 4 7 7 7 7 7 a b ' g.z.",
"c.8.H j < + o o o . o o o o o o o +   e &.>.- # + o o o o o o o o o o . o . o   e &.>.& o o o o o + o o o o o + o + : 1 d ~ g.x.",
"c.8.C s , o                       o   w %.&.% . .                           .   w %.>.% . .                         o , i ~ g.x.",
"c.7.C s , o                       .   w %.>.% .                             .   w %.>.X .                           o , u ~ g.x.",
"x.8.C s , .                       .   w %.>.% .                             .   w &.>.% .                           o , u ~ h.x.",
"x.8.V s , o                       .   w %.>.% .                             .   w &.>.% . .                         o , u ~ g.x.",
"x.7.C s , o                       .   w %.>.X .                             .   w %.>.X .                           o , u ~ g.x.",
"c.7.C s , o                       .   w %.&.X .                             .   w %.&.X .                           o , u ~ g.x.",
"c.8.C s > o                       .   0 %.&.X .                             .   w %.&.X .                           o , u ~ g.x.",
"c.8.C s , o                       .   0 %.&.X .                             .   0 %.&.X .                           o , u ~ g.x.",
"c.8.C s , o                       .   w %.>.X .                             .   w %.&.X .                           o , u ~ g.x.",
"c.8.C s , o                       o   e &.>.% . .                           o   e &.>.% .                           o , i ( g.x.",
"c.8.Z s , o                       o   e >.>.- . .                           o   e >.,.- . .                         o , i ( h.x.",
"c.i.H j , + o . . . . . . . . o o #   s >.,.> . o . . . . . . . . . . . o o #   g >.,.> . o . . . . . . . . . . . o $ , i ) h.x.",
"c.u.G i *                             w &.>.%                                   w &.>.%                               O t ( h.x.",
"c.r.) S n h h h h h g g j g h h k l h K 3.4.v g g g g g g h h g g g g g h k l h K 3.4.v g j g g g g h h h g g g g k l M K =.k.x.",
"x.d.,.$.} ` / / / ` / / / / _ ` ` } ` X...+.` ^ ^ ^ / / / / ` / / / / / ` } } ` X...#._ ^ ^ ^ ^ / / / ` / / / / / ` } X.%.3.g.x.",
"x.d.,.%.O.X.X.X.X.X.X.X.X.X.X.X.X.X.X.O.^ } O.X.X.X.X.X.X.X.X.X.X.X.X.X.X.X.X.X.O.^ } O.X.X.X.X.X.X.X.X.X.X.X.X.X.X.X.O.%.,.s.x.",
"x.d.@.] ! Y J J J J J J J J J Y Y R Y ) 3.7.Y H J J J J J J J J J J J J Y Y R Y ) 4.7.Y H J J J J J J J J J J J J Y R ( ..<.z.x.",
"c.0.G p %                             2 %.%.                                    2 %.%.                                - y ~ g.x.",
"c.u.H j , $ o o o o o o o o o # o #   q %.&.X $ # o o # # # # o o o o o o . #   8 %.&.X $ # # # o o o o o o o o o # $ , s ( g.x.",
"c.i.H j , o                       o   8 %.&.X .                             o   8 %.&.X . .                         o , s ( g.x.",
"c.i.H j , o                       .   8 %.&.X .                             .   w %.&.X .                           o , s ( g.x.",
"c.i.H j , o                       .   w %.&.X .                             .   w %.&.X .                           o , s ( g.x.",
"c.i.H j , o                       .   w &.&.% .                             .   w %.&.% .                           o , s ) g.x.",
"c.i.H j , o                       .   w &.>.% .                             .   w %.&.% .                           o , d ( h.x.",
"c.i.H j , o                       .   w %.&.% .                             .   w %.>.% .                           o , i ( h.x.",
"c.i.H j , o                       .   w %.>.% .                             .   w %.>.% .                           o , s ( h.x.",
"c.i.H j , .                       .   w %.&.X .                             .   w &.&.X .                           o , i ( h.x.",
"c.i.H j , o                       .   w %.&.X .                             .   0 %.&.X .                           o , i ( g.x.",
"c.i.H s > o                       .   0 %.&.X . .                           .   w %.&.X .                           o , i ( h.z.",
"c.i.H s > .                       .   w %.&.X . .                           .   w %.&.X .                           . , i ( g.x.",
"c.8.H s , o                       .   w %.>.% . .                           .   e &.&.% .                           o , i ( h.x.",
"c.u.H s > o                       .   e &.>.& . .                           o   e >.>.& . .                         o , a ( h.x.",
"x.8.H s , o                       o   r >.,.; . .                           o   r >.>.; . .                         o , a ( h.z.",
"c.i.Z s , # # . o # o # # # o o @ $   f &.,.> @ # o # # . . . # # # # o o # $   f &.,.> @ # # # # . . # # # # # o # # , i ( h.z.",
"c.0.G p &                             i ,.>.%                                   i ,.,.&                               & y ' h.z.",
"x.d.:...( E R E E E E R R R E E ^ ^ ! o.3.5.^ R R R R E E E E E R R R E E ^ ^ ! ..3.5.~ R R R R R E E E E R R R R ! ^ ` +.6.k.x.",
"x.d.&.X.} _ / / / / / / / / / / _ / / _ H E / / / / / / / / / _ / / / / / _ / / _ H E _ / / / / _ / / / / / / / / / _ } X.%.d.x.",
"x.g.3.>.%.O.O.O.O.O.O.O.O.O.O.+.+.$.$.>.,.4.+.O.O.O.O.O.O.O.+.+.O.O.O.O.+.+.$.+.>.,.4.@.O.O.O.O.O.+.+.O.O.O.O.O.O.+.$.%.,.7.h.z.",
"x.r.Q m 0 , > > > > > = = = > > , 7 > z ,.,.2 = = = = > > > > > = = = > > , 6 > j ,.,.3 = = = = ; > > > ; = = = > , 7 s B [ j.x.",
"c.0.H j , o .   . . . . . . .     .   8 %.&.X @ . . . .       . . . . .     .   8 %.%.  @ . . . .   .   . . . . .   . , i ( g.x.",
"c.i.J j , o .   . .             . o   0 %.&.X # o                       . . o   8 %.&.X o o         . .           . o , s ( h.x.",
"x.p.J j , o                       .   8 %.&.X .                             .   8 %.&.X .                           o , d ( h.x.",
"c.p.J j , o                       .   0 %.&.X .                             .   0 %.&.X .                           o , j ) h.x.",
"c.a.U k < o                       .   w %.&.X . .                           .   w %.&.X .                           o < j ) h.x.",
"x.p.U k 4 o                       .   w %.>.% . .                           .   w %.>.% .                           + < j ) h.z.",
"x.a.U k < o                       .   w %.>.% . .                           o   w %.>.% .                           o 7 j ) j.x.",
"x.a.U k 4 o                       .   w %.>.% .                             .   w &.>.% . .                         o 7 j ) j.x.",
"x.a.Y k 7 o                       .   w %.>.X .                             .   w &.&.% .                           o 7 j ) j.z.",
"c.a.Y k 7 +                       .   w %.&.X .                             .   w %.&.X .                           + 7 j ) j.x.",
"c.a.Y k 4 +                       .   8 %.&.X .                             .   8 %.&.X .                           + 7 k ) j.x.",
"x.a.Y k 7 +                       .   w %.&.X .                             .   w %.&.X .                           o 7 j ) x.z.",
"c.a.Y k 7 +                       o   w %.>.% . .                           o   w %.>.% . .                       o + 7 j ) h.x.",
"c.s.Y v 7 : o o o o o o o o o o o +   s ,.,.; o + o o o o o o o o o . o . o o   i ,.,.; o + o o o o o o + o o + + + : 7 x | h.x.",
"x.s.^ N a 1 , , , , > , , , , , , , * x 2.1.u , , , , , , , , , , , , > > , , O x 1.1.t , , , , < , , 4 7 7 7 7 7 7 8 d B o.l.x.",
"c.d.{ P m j d i s s i s s s s s s s i S 5.4.M j j j j j j j j j j s s s s s s u S 4.4.m s j j j j k k k k k k k k k x B P -.k.x.",
"x.g.@.' I H C C C C C C C C C Z H H G ) u.8.~ H H H H H H J H H H H H H H H H C ) 8.9.Q J J J J U U Y U Y Y Y Y Y Y T (  .<.k.x.",
"x.k.t.w.0.8.8.8.8.8.8.8.8.8.0.8.i.u.0.r.h.h.r.i.i.i.p.i.i.i.i.i.p.i.i.i.u.i.i.i.r.h.g.r.i.i.p.a.a.a.a.a.a.a.a.a.a.a.s.s.y.f.x.x.",
"k.k.x.x.x.x.c.c.x.x.x.c.c.c.c.x.c.x.c.x.x.x.x.c.c.x.c.c.c.x.c.c.c.c.c.c.c.c.x.c.x.x.x.c.x.x.x.x.x.x.x.x.x.x.x.c.c.c.c.x.x.k.x.x."
};
