/* XPM */
static char *_99d13a50878420aad542cb5024ca4c6d345luukbMo9GSmw[] = {
/* columns rows colors chars-per-pixel */
"64 64 109 2 ",
"   c #000102",
".  c #060807",
"X  c #080807",
"o  c #010509",
"O  c #040909",
"+  c #090B0A",
"@  c #0D100E",
"#  c #000C14",
"$  c #061011",
"%  c #091213",
"&  c #001519",
"*  c #0B1718",
"=  c #00191C",
"-  c #0D1D1E",
";  c #111D1C",
":  c #13201F",
">  c #0E1F20",
",  c #012326",
"<  c #0E2223",
"1  c #0D292C",
"2  c #132423",
"3  c #192725",
"4  c #162827",
"5  c #152A2A",
"6  c #1C2C2A",
"7  c #173232",
"8  c #1B3333",
"9  c #1B393A",
"0  c #202F2C",
"q  c #21312E",
"w  c #213330",
"e  c #243937",
"r  c #213B3A",
"t  c #283F3D",
"y  c #25403F",
"u  c #2E423E",
"i  c #244342",
"p  c #2E4541",
"a  c #2E4946",
"s  c #2D4E4C",
"d  c #314642",
"f  c #344A44",
"g  c #384D47",
"h  c #354E49",
"j  c #2E514E",
"k  c #34524E",
"l  c #3B524C",
"z  c #2D5350",
"x  c #355551",
"c  c #3B5651",
"v  c #365955",
"b  c #3B5A55",
"n  c #375C58",
"m  c #3C5F5A",
"M  c #3D605B",
"N  c #40564F",
"B  c #405750",
"V  c #425A53",
"C  c #445F58",
"Z  c #466057",
"A  c #43625C",
"S  c #4D665D",
"D  c #4E685E",
"F  c #50695F",
"G  c #436963",
"H  c #4D6A61",
"J  c #516D63",
"K  c #4C736C",
"L  c #527066",
"P  c #56746A",
"I  c #58766C",
"U  c #59786E",
"Y  c #577A70",
"T  c #5D7E73",
"R  c #607F74",
"E  c #5F8075",
"W  c #5D847A",
"Q  c #5C897E",
"!  c #608175",
"~  c #618276",
"^  c #60857A",
"/  c #64867A",
"(  c #60897D",
")  c #658A7E",
"_  c #658C80",
"`  c #678D81",
"'  c #6A8F82",
"]  c #669084",
"[  c #6C9184",
"{  c #6F9687",
"}  c #6F9588",
"|  c #709587",
" . c #709588",
".. c #72988A",
"X. c #739A8C",
"o. c #749B8D",
"O. c #729D8F",
"+. c #759D8E",
"@. c #769E90",
"#. c #75A092",
"$. c #78A293",
"%. c #79A394",
"&. c #7AA596",
"*. c #7BA798",
"=. c #7DA798",
"-. c #7FAA9B",
";. c #7FAB9C",
":. c #80AB9C",
">. c #80AC9D",
/* pixels */
"&.#.&.&.-.-.-.;.-.-.-.;.;.:.;.-.-.-.;.&.-.&.*.>.;.-.:.;.;.;.;.;.-.:.;.:.:.;.-.:.*.-.&.*.:.;.;.-.-.-.-.;.-.-.;.-.;.;.;.-.-.@.=.&.",
"&.O.( Q [ { { | { { { { |  .{  . . ...' %.#.{ .... . .X.X.X............. .| } X.[ %.#.{ X.....o.o.X.o.+.....+.+.+.+.+...] W *.-.",
":.@.M s p u u u u u u u u u u p p d u k { ` a d d f d f f f f d d d d u p p d u k { ' a f f f g f l g g l l l l l l l k x G &.-.",
";.X.k 9 5 2 2 2 2 2 2 2 2 2 2 2 2 2 - 9 ' ^ , 4 4 4 4 4 4 2 2 4 2 2 2 2 2 2 2 - 9 ' W , 4 4 4 4 4 4 4 4 5 5 4 5 4 4 4 7 9 n %.-.",
";...p 5 - % % % $ % % $ $ $ % % $ % O 4 / E # % % % % % % % % % % % $ $ $ % % o 2 ^ T o % % % % % % % % % % % % % % % - 5 x &.-.",
"-.{ p 2 % O O o o o o o o o o o o O   ; ! T   + O O O o o o o o o o o o o o O   2 T T   + O o O o O O o O O O O o O O % < k #.-.",
";.| u 2 % o                       o   ; T T   + o                           o   ; T T   +                           O % - k $.-.",
";.} u 2 % o                       o   ; E T   +                             o   ; E T   +                           o % - k $.-.",
"-.{ u 2 % o                       o   : E T   +                             o   ; T T   +                           o % - k %.-.",
";.| u 2 $ o                       o   ; E T   +                             o   ; T T   +                           o % - k $.-.",
":. .u 2 % o                       o   ; T T   +                             o   : ! T   +                           o % - k $.-.",
";.{ u 2 % o                       o   ; R T   +                             o   ; T T   +                           o % - h %.-.",
";.{ u 2 % o                       o   ; T T   +                             o   ; T T   +                           o % - k $.-.",
";.| u 2 $ o                       o   ; T T   +                             o   ; T T   +                           o % - k #.-.",
";.| u 2 $ o                       o   ; ! T   +                             o   ; R T   +                           o % - k $.-.",
"-.} u 2 % o                       o   2 ! T   +                             o   2 ! T   +                           o % < k $.-.",
";. .u 2 % o                       o   2 ! E   X                             o   2 ! E   X                           o % - k %.-.",
"-. .p 2 % O o o o o o o o o o o o O   3 ! !   + O o o o o o o o o o o o o o O   3 ! !   + O o o o o o o o o o o o o O % < x &.-.",
"-. .u -                               ; ! E                                     ; ! E                                   & k $.-.",
"-.[ c y 8 6 6 6 6 6 6 6 6 6 6 6 q q 6 p ' ) 5 6 6 6 6 6 6 6 6 6 6 6 6 6 0 q q 6 p ' ) 6 6 6 6 6 6 6 6 6 6 6 6 6 6 q w e i A &.-.",
"-.+.^ U L H S D S S S S S S S D H J H J L I S S S S S S S D D S S S S S D F H H J L P S S S S S S S S S S S S S S H J P T / $.-.",
"-.#.! U P P P P P P P P P P P P P P P I S J P P P P P P P P P P P P P P P P P P I S J P P P P P P P P P P P P P P P P I Y ! @.-.",
"&.[ H b k g g l l l g g g g g l l l l b ' ` f g g g g g l l l g g g g g l l l l b ' ` f g g g g g l g l l g g g l l l b A K &.-.",
":. .u =                               o T Y                                     o T Y                                   & s #.-.",
":.X.d 4 % + O O O O O O O O O + + +   ; T T   + + O O O O O + O O O O O + + +   ; T T   + + O O O O O O O O O O + + + % 2 x $.-.",
";.X.d 4 % O                       o   - T T   +                             o   ; T T   +                           O % 2 k %.-.",
";.X.d 4 % O                       o   ; T T   +                             o   ; T T   +                           o % 2 k $.-.",
";...f 4 % o                       o   ; T T   +                             o   ; T T   +                           O % 2 k %.-.",
":.X.f 4 % o                       o   ; T T   +                             o   ; T T   +                           o % 2 x %.-.",
";...f 2 % o                       o   ; T T   +                             o   ; E T   +                           o % 2 x %.-.",
"-...d 4 % o                       o   : ! T   +                             o   ; E T   +                           o % 2 x %.-.",
"-...f 4 % O                       o   ; T T   +                             o   ; T T   +                           o % > k %.-.",
":...f 2 % o                       o   ; T T   +                             o   ; T T   +                           o % < k %.-.",
":. .d 2 $                         o   ; T T   +                             o   ; R T   +                           o % 2 k %.-.",
":...d 2 % o                       o   ; T T   +                             o   ; T T   +                           o % ; k %.=.",
":. .d 2 $ o                       o   ; T T   +                             o   ; T T   +                           o % - k $.=.",
";. .d 2 $ o                       o   : ! T   +                             o   : ! T   +                           o % - k $.=.",
";. .p 2 % o                       o   2 ! T   +                             o   2 ! T   O                           o % - x %.=.",
"-. .d 2 % o                       O   2 ! !   X o                           .   2 ! E   X o                         o % - x %.=.",
":. .d 2 % + + + + + + + + + + + + +   3 ! ! o + + + + + + + + + + + + + + + +   3 ! ! o + + + + + + + + + + + + + + + % - c %.=.",
"-.} t &                               - ! E                                     - ! E                                   # j %.=.",
"&.} Y H C V V V V V V l V V V C C Z C H ) ) c N N N B B V V V V V V B V C C Z C H ) ` c N N N B V V V V V B V V V C Z S L T &.=.",
"-.$.E P J J D D D D S S S S S D D D D J l C D D D D D D D D D S S D S S D D D D F l C D D D D S D D D D S S D D S D D J P T @.=.",
"&.X.E Y P P P P P P P P P P P P I U I Y / ) L P P P P P P P P P P P P P P P U I Y / ) L P P P P P P P P P P P P P P U Y T ^ &.=.",
"-.[ h 5 & o o     o           o O $ o < ! T                             o O $ o < ^ T                             o & > 7 x %.-.",
">.o.f 4 % + X X X X X + + + X . . O   ; T T   @ + + + + X O O O + + + X X . X   ; T T   + + + + O X X O O + + + O . O % > k #.-.",
";.X.f 4 % O                       O   ; T T   + o                           O   ; T T   + o                         O % 2 x %.-.",
";.X.f 4 % o                       o   ; T T   +                             o   ; T T   +                           O % 2 k &.-.",
";.X.g 4 % o                       o   ; T T   +                             o   ; T T   +                           o % 2 x &.-.",
";.+.g 4 % O                       o   ; T T   +                             o   ; T T   +                           O % 2 c &.-.",
"-.X.l 4 % O                       o   ; E T   +                             o   ; T T   +                           O % 2 c &.-.",
"-.X.l 4 % o                       o   : ! T   +                             o   : E T   +                           O % 4 b %.-.",
"-.+.l 4 % O                       o   ; E T   +                             o   ; T T   +                           O % 4 b &.-.",
"-.+.l 4 % O                       o   ; R T   +                             o   ; R T   +                           O % 4 b &.-.",
"-.+.l 5 % O                       o   ; T T   +                             o   ; T T   +                           O % 2 b &.=.",
"-.+.l 4 % O                       o   ; T T   +                             o   ; T T   +                           O % 5 b %.-.",
"-.+.l 5 % O                       o   ; T T   +                             o   ; T T   +                           O % 4 b &.-.",
"-.o.l 4 % O                       o   : R T   +                             o   ; T T   +                           O % 4 b &.-.",
"-.+.l 4 * O O o o o o o o o o o o O   2 ! E   + O o o o o o o o o o o o o o O   2 ! T   + O o O o O O O o O O o o O O - 4 b &.-.",
";.+.c 7 > % % $ % % % % $ % % % % % o 6 ) ^ & % % % % % % % % % $ $ $ % $ % %   5 ) ^ & % % % % % % % % % % % % % % - 2 7 m &.-.",
"-.@.C 9 5 2 2 2 2 2 2 2 2 2 2 2 2 2 - r ' ) 5 4 4 4 4 4 2 2 4 2 2 2 2 2 2 2 2 - r [ ) 1 4 4 4 4 4 4 4 4 4 4 5 5 5 4 5 7 i G =.-.",
"-.%.G z p p u u u u u u u u u u p u u v ..[ h d d f f f f f d f f d d d d p d u x } [ h d f f g g g l l l l l l l l k k v K =.-.",
"&.@.` W ` { | |  .| { [ {  ... ...} ..] &.$.[ o...........X.X............. .....] &.$.[ X.X.o...o.o.o.+.+.+.o.o.o.+.+.} ( Q =.-.",
"=.&.-.-.-.;.;.;.-.-.-.-.-.-.:.:.;.-.;.=.=.=.=.:.;.-.:.;.;.;.:.;.-.-.-.-.;.;.;.:.&.-.=.&.>.-.-.-.-.-.-.-.-.-.-.-.-.-.-.-.-.&.-.-."
};
