/* XPM */
static char *_fef2b49b18646409e2a531476667a7bgVUmk1jZCwzXnzco[] = {
/* columns rows colors chars-per-pixel */
"64 64 116 2 ",
"   c #000002",
".  c #080407",
"X  c #030509",
"o  c #080509",
"O  c #02090D",
"+  c #09090C",
"@  c #000D13",
"#  c #0A0E12",
"$  c #001017",
"%  c #0B1016",
"&  c #00121C",
"*  c #0E151D",
"=  c #10171F",
"-  c #071721",
";  c #0E1720",
":  c #0E1A25",
">  c #001E2D",
",  c #0F1C29",
"<  c #101720",
"1  c #121A24",
"2  c #111E2A",
"3  c #1A1F2A",
"4  c #12202E",
"5  c #1B202C",
"6  c #0A2233",
"7  c #142334",
"8  c #1D2431",
"9  c #192739",
"0  c #172A3D",
"q  c #1B2B3E",
"w  c #212A3A",
"e  c #1A2E44",
"r  c #1E3046",
"t  c #1E364E",
"y  c #222F42",
"u  c #243145",
"i  c #26344A",
"p  c #2B354A",
"a  c #2E384E",
"s  c #30374B",
"d  c #32384E",
"f  c #253A54",
"g  c #293B54",
"h  c #263E5A",
"j  c #2A3E59",
"k  c #333B51",
"l  c #393E53",
"z  c #2B415D",
"x  c #3B4056",
"c  c #34415B",
"v  c #3D435A",
"b  c #274260",
"n  c #2D4563",
"m  c #314563",
"M  c #384663",
"N  c #334C6D",
"B  c #3C4D6C",
"V  c #344D70",
"C  c #345175",
"Z  c #3E5375",
"A  c #44465E",
"S  c #454760",
"D  c #444962",
"F  c #494B64",
"G  c #464E6B",
"H  c #4B4E6B",
"J  c #4B516E",
"K  c #4C5373",
"L  c #4D5779",
"P  c #525675",
"I  c #555877",
"U  c #525778",
"Y  c #54597A",
"T  c #585A79",
"R  c #595C7C",
"E  c #3F608B",
"W  c #565E82",
"Q  c #5D5F80",
"!  c #5C5F81",
"~  c #4A6087",
"^  c #41638E",
"/  c #4A6189",
"(  c #4C628A",
")  c #566086",
"_  c #5D6081",
"`  c #5E6182",
"'  c #586084",
"]  c #576388",
"[  c #57648B",
"{  c #50648D",
"}  c #54658C",
"|  c #5B6388",
" . c #5A658B",
".. c #616486",
"X. c #616488",
"o. c #616589",
"O. c #64678B",
"+. c #65678C",
"@. c #63688D",
"#. c #65688D",
"$. c #646B93",
"%. c #676C93",
"&. c #606C95",
"*. c #656C94",
"=. c #686B90",
"-. c #686D93",
";. c #696E95",
":. c #636E98",
">. c #666F9A",
",. c #6A6F98",
"<. c #6E7097",
"1. c #697099",
"2. c #6F729B",
"3. c #6F739C",
"4. c #70729B",
"5. c #71739C",
/* pixels */
"1.:.>.1.3.5.5.5.5.5.5.5.5.5.5.5.5.5.5.1.2.1.1.5.5.5.5.5.5.5.5.5.5.5.5.5.5.5.5.5.1.2.1.1.5.5.5.5.5.5.5.5.5.5.5.5.5.5.5.3.2.:.2.2.",
"1.&./ ~ | o.o.o.o.o.o.o.o.o.o.o.o.o.o.] ;.*. .+.+.o.O.O.+.O.O.O.o.O.O.o.o.o.o.O.[ ;.*. .O.o.O.O.#.#.#.#.#.#.#.#.#.#.#.@.{ E 1.4.",
"5.=.n f u u u u u u y u u u u u u u u g o.' i i i i i i i i i i u u i u u u u u g o.) t i i i a a a a a a k k k g d g g h V ;.2.",
"5.@.f 0 4 1 : : : : : : : : : : : 1 ; 9 _ Y > 2 2 2 , , , 2 2 : : : : : : : : - 9 Q Y > 1 1 , , , 2 , 2 4 4 4 4 4 2 4 7 0 n ;.2.",
"5.o.i 4 * % # # # # # # # # # # # # O 2 T Y @ # # # # # # # # # # # # + + # # O 1 Y Y @ # # # # # # # # % # % % % % % ; 2 h *.2.",
"5.o.u 2 # O X X X X X X X X X X X X   ; I P   + X X X X X X X X X X X X X X X   ; I P   + X X X X X X X X X X X X O + % : f ;.2.",
"5.o.u : # X                       X   = P P   o X                           X   ; I P   o X                       X X # ; f -.2.",
"5.o.u : # X                       X   ; P P   o X                           X   * I P   o X                         X # ; g ;.2.",
"5.o.u : # X                       X   ; I P   o X                           X   * P P   .                           X # ; g ;.2.",
"5.o.y : # X                       X   ; I P   o X                           X   = P P   .                           X # : g ;.2.",
"5.o.u : # X                       X   * I P   o X                           X   * P P   o X                         X # * f ;.2.",
"5.o.u : + X                       X   * I P   o X                           X   * P P   o X                         X # ; f -.2.",
"5.o.u : # X                       X   * P P   o X                           X   * P P   o X                         X # : f %.2.",
"5.o.u : # X                       X   * P P   o X                           X   * P P   o X                         X # ; g -.2.",
"2.o.u : # X                       X   * I P   o X                           X   ; I P   o X                         X # ; g ;.2.",
"5.o.u : # X                       X   < P P   . X                           X   < I P   .                           X # ; g ;.2.",
"5.o.u : # X                       X   1 I P   . X                           X   < I P   .                           X # : g ;.5.",
"5.o.u 1 # X X X X X X X X X X X X X   1 Y Y X X X X X X X X X X X X X X X X X   1 I Y X o X X X X X X X X X X X X X X # : g ;.2.",
"5.o.u -                               < I P                                     < I P                                   & j ;.2.",
"2. .j y 8 5 5 5 5 5 5 3 3 3 5 5 5 5 5 u Q W 4 3 3 3 3 3 3 3 5 5 3 3 3 5 5 5 8 5 u Q W 7 3 3 3 3 5 5 5 5 5 3 3 3 3 5 8 w u m ;.2.",
"2.$.Y J F D A S A S A A A A A A D D D G H J v A A A A A A A A A A A A A A A D A G F J v A A A A A A A S A A A A A S F H P R ;.2.",
"3.-.Y K J H H H H H H H H H H H H H H H A F H H H H H H H H H H H H H H H H H H H A F H H H H H H H H H H H H H H H H H K Y -.2.",
"1.} B c g a s d d d d s s s d d k k d c _ ) i a a a a s d d d d a s s s d k k d c _ ) i a a a a s d s d d a s s d d k c M Z ;.2.",
"5.o.r &                               X P K                                     O P K                                   & f ;.2.",
"5.O.i 2 # + X X X X X X X X X X X +   * P P   + X X X X X X X X X X X X X X +   * P L   + X X X X X X X X X X X X X + % 1 j ;.2.",
"5.o.i 2 # X                       X   * P P   o X                           X   * P P   o                           X # : g ;.2.",
"5.O.i , # X                       X   * P P   o X                           X   * I P   o X                         X # : g ;.2.",
"5.+.i , # X                       X   * P P   o X                           X   * P P   o X                         X # : j ;.2.",
"5.+.i 2 # X                       X   * I P   . X                           X   ; I P   o X                         X # : j ;.2.",
"5.#.i , # X                       X   * I P   o X                           X   < I P   o X                         X # 1 j ;.2.",
"5.O.i , # X                       X   < I P   . X                           X   < I P   o X                         X # : j ;.5.",
"5.o.i , # X                       X   < I P   o X                           X   * I P   o X                         X # : j ;.2.",
"5.o.i 2 # X                       X   = P P   o X                           X   * I P   o X                         X # : g ;.2.",
"5.O.i : # X                       X   * P P   o X                           X   * P P   . X                         X # : f ;.2.",
"5.O.u : # X                       X   * P P   .                             X   * P P   o X                         X # : g ;.2.",
"5.o.u : # X                       X   * I P   o                             X   * P P   .                           X # : g ;.2.",
"5.o.u : # X                       X   * I P   X                             X   < I P   .                           X # : g ;.2.",
"5.o.u : # X                       X   < I Y   . X                           X   < I P   .                           X # : g ;.2.",
"5.o.u : # X                       X   1 Y U X . X                           X   1 I Y X . X                         X # : j ;.2.",
"5.O.u 1 # + o o o o o o o o o o o +   1 Y Y O + + o o o o o o o o o o o o o +   1 Y Y O + + o o o o o o o o o o o o + # < j ;.<.",
"5.o.e &                               - I P                                     - Y U                                   & h ,.<.",
"1. .K D v l l l l l l l l l l l v v x S Q W k l l l l l l l l l l l l l x x v x S _ W k l l l l l l l l l l l l l l v S G L ;.2.",
"4.=.I H D D A A A A A A A A A A A A A A d l S A A A A A S A A A A A A A A A A A S s l A A A A A A A A A A A A A A A S F H P $.2.",
"1.&.Y K J H H H H H J H H H H J J J J L T W G H H H H H H H H H H H H H J J J J L T W G H H H H H H H J H H H H H H J L L W ,.2.",
"1. .i 6 & O X X O X X X X X X O O @ O , I L   X X X X X X O O X X X X X O @ @ O , Y L   X X X X X O X O X X X X X O $ : 7 h ;.2.",
"5.+.i 2 # o . . . . . . X . . . . .   * P P   + o . . . . . . . . . . . . . .   * P P   + o . . . . . . . . . . . . . # : g -.2.",
"5.+.i 2 # X X X X X       X X X X X   * P P   o X X X X X X X X X X X X   X X   * P L   o X X X X X         X X X X X # : j ;.2.",
"5.#.i , # X                       X   * P P   o X                           X   * P P   o X                         X # : j ;.2.",
"5.#.a , # X                       X   * P P   o                             X   * I P   o X                         X # , j ;.2.",
"5.#.a 2 # X                       X   * I P   o                             X   * I P   o X                         X # , z ;.2.",
"5.#.a 2 # X                       X   * P P   o                             X   * I P   o X                         X # , z ;.2.",
"5.#.a 4 # X                       X   * I P   o                             X   ; I P   o X                         X # 2 z ;.2.",
"5.#.a 2 % X                       X   = P P   o X                           X   * I P   X X                         X % 2 z 1.2.",
"5.#.k 4 % X                       X   * P P   o X                           X   = I P   o                           X % 2 z ;.2.",
"5.#.k 4 % X                       X   * I P   o X                           X   * P P   o X                         X % 2 z ;.2.",
"5.#.k 4 % X                       X   * P P   o X                           X   * P P   o X                         X % 2 z ,.2.",
"5.#.k 4 % X                       X   * P P   o X                           X   * P P   o X                         X % 2 z ;.2.",
"5.#.d 2 % X                       X   * P P   X X                           X   ; I P   X X                       X X % 2 z ,.2.",
"5.#.g 4 % + X X X X X X X X X X X X   < I Y X + X X X X X X X X X X X X X X X   1 Y U X o X X X X X X X X X X X X O + % 2 n ,.2.",
"5.#.j 7 < # # # # # # # # # # # # #   5 R Y & # # # # # # # # # # # # # # # #   5 R Y & # # # # # # # # # % % % % % % < 7 n ;.2.",
"5.=.m e 7 : : : : : : : : : : : : 2 ; q ..W 6 1 , , , , , , , , , : : : : : : * q _ W 6 1 , , , 2 2 2 2 4 4 4 4 2 4 7 7 r N ,.2.",
"5.-.N h u u u u u u u y u u u u u u u j o.| f i i i i i i i i i i u i u u u u u j o.| f i p p i p a a a g k k k k a g g b C ,.2.",
"1.&.( / ) o.o.o.o.o.o.o.o.o.o.o.o.o.o.} ;.*. .+.O.+.#.#.+.+.#.O.O.#.o.O.O.o.o.o.} ;.;. .#.#.#.#.#.#.#.#.#.#.#.#.$.#.#. .( ^ 2.2.",
",.>.2.2.2.2.4.4.5.2.4.4.2.5.5.3.5.5.5.2.2.2.2.5.5.5.3.5.5.3.5.5.4.5.4.4.5.5.5.5.2.2.1.1.5.5.3.3.5.3.2.5.5.2.5.5.5.5.3.2.2.,.2.2."
};
